<svg width="183.32744140625px" height="62.032519531249996px" xmlns="http://www.w3.org/2000/svg" viewBox="158.336279296875 43.983740234375006 183.32744140625 62.032519531249996" style="background: rgba(0, 0, 0, 0);" preserveAspectRatio="xMidYMid"><defs><linearGradient id="editing-sticker-gradient" x1="0.5" y1="0.2" x2="0.5" y2="0.8"><stop offset="0" stop-color="#fd9"></stop><stop offset="1" stop-color="#9df"></stop></linearGradient><filter id="editing-sticker" x="-100%" y="-100%" width="300%" height="300%"><feMorphology operator="erode" radius="1" in="SourceAlpha" result="alpha-erode"></feMorphology><feConvolveMatrix order="3,3" divisor="1" kernelMatrix="0 1 0 1 1 1 0 1 0" in="alpha-erode" result="alpha-round"></feConvolveMatrix><feMorphology operator="dilate" radius="3.5" in="alpha-round" result="dilate-shadow"></feMorphology><feGaussianBlur in="dilate-shadow" stdDeviation="1.5" result="shadow"></feGaussianBlur><feFlood flood-color="#fff" result="flood-sticker"></feFlood><feComposite operator="in" in="flood-sticker" in2="alpha-round" result="comp-sticker"></feComposite><feMorphology operator="dilate" radius="3" in="comp-sticker" result="morph-sticker"></feMorphology><feConvolveMatrix order="3,3" divisor="1" kernelMatrix="0 1 0 1 1 1 0 1 0" in="morph-sticker" result="sticker"></feConvolveMatrix><feMerge><feMergeNode in="shadow"></feMergeNode><feMergeNode in="sticker"></feMergeNode><feMergeNode in="SourceGraphic"></feMergeNode></feMerge></filter></defs><g filter="url(#editing-sticker)"><g transform="translate(190.16000258922577, 86.15937519073486)"><path d="M6.55 0L4.32 0L4.32 0Q3.34 0 2.89-0.44L2.89-0.44L2.89-0.44Q2.45-0.89 2.45-1.87L2.45-1.87L2.45-10.78L0.62-10.78L0.62-12.38L1.70-12.38L1.70-12.38Q2.26-12.38 2.44-12.66L2.44-12.66L2.44-12.66Q2.62-12.94 2.62-13.49L2.62-13.49L2.62-15.79L4.27-15.79L4.27-12.38L6.67-12.38L6.67-10.78L4.27-10.78L4.27-1.61L6.55-1.61L6.55 0ZM9.46 0L9.46-17.76L11.28-17.76L11.28-8.64L11.14-6.22L11.33-6.22L13.06-8.54L16.15-12.38L18.36-12.38L14.26-7.46L18.72 0L16.54 0L12.91-6.38L11.28-4.46L11.28 0L9.46 0ZM20.90 0L20.90-17.76L22.73-17.76L22.73-10.37L22.97-10.37L22.97-10.37Q23.33-11.52 24.08-12.10L24.08-12.10L24.08-12.10Q24.84-12.67 26.14-12.67L26.14-12.67L26.14-12.67Q27.79-12.67 28.74-11.54L28.74-11.54L28.74-11.54Q29.69-10.42 29.69-8.06L29.69-8.06L29.69 0L27.86 0L27.86-7.94L27.86-7.94Q27.86-9.43 27.25-10.22L27.25-10.22L27.25-10.22Q26.64-11.02 25.37-11.02L25.37-11.02L25.37-11.02Q24.26-11.02 23.50-10.34L23.50-10.34L23.50-10.34Q22.73-9.67 22.73-8.45L22.73-8.45L22.73 0L20.90 0ZM34.90 0L31.92-12.38L33.70-12.38L34.90-7.01L35.95-1.61L36.19-1.61L37.42-7.01L38.66-12.38L40.78-12.38L42.02-7.01L43.25-1.61L43.49-1.61L44.54-7.01L45.74-12.38L47.47-12.38L44.50 0L42.19 0L40.68-6L39.84-10.54L39.60-10.54L38.71-6L37.20 0L34.90 0ZM58.70 0L57.41 0L57.41 0Q55.63 0 55.63-1.78L55.63-1.78L55.63-2.02L55.39-2.02L55.39-2.02Q55.08-0.89 54.25-0.30L54.25-0.30L54.25-0.30Q53.42 0.29 52.27 0.29L52.27 0.29L52.27 0.29Q50.47 0.29 49.58-0.62L49.58-0.62L49.58-0.62Q48.70-1.54 48.70-3.31L48.70-3.31L48.70-3.31Q48.70-5.04 49.84-6.05L49.84-6.05L49.84-6.05Q50.98-7.06 53.40-7.06L53.40-7.06L55.63-7.06L55.63-8.42L55.63-8.42Q55.63-9.79 55.02-10.44L55.02-10.44L55.02-10.44Q54.41-11.09 53.09-11.09L53.09-11.09L53.09-11.09Q52.01-11.09 51.35-10.62L51.35-10.62L51.35-10.62Q50.69-10.15 50.21-9.26L50.21-9.26L49.13-10.27L49.13-10.27Q49.61-11.28 50.66-11.96L50.66-11.96L50.66-11.96Q51.72-12.65 53.16-12.65L53.16-12.65L53.16-12.65Q55.27-12.65 56.36-11.63L56.36-11.63L56.36-11.63Q57.46-10.61 57.46-8.62L57.46-8.62L57.46-1.61L58.70-1.61L58.70 0ZM52.73-1.30L52.73-1.30L52.73-1.30Q53.35-1.30 53.89-1.51L53.89-1.51L53.89-1.51Q54.43-1.73 54.82-2.08L54.82-2.08L54.82-2.08Q55.20-2.42 55.42-2.87L55.42-2.87L55.42-2.87Q55.63-3.31 55.63-3.79L55.63-3.79L55.63-5.66L53.35-5.66L53.35-5.66Q51.91-5.66 51.25-5.18L51.25-5.18L51.25-5.18Q50.59-4.70 50.59-3.79L50.59-3.79L50.59-3.12L50.59-3.12Q50.59-2.18 51.17-1.74L51.17-1.74L51.17-1.74Q51.74-1.30 52.73-1.30ZM63 0L61.18 0L61.18-12.38L63-12.38L63-10.37L63.24-10.37L63.24-10.37Q63.60-11.52 64.36-12.10L64.36-12.10L64.36-12.10Q65.11-12.67 66.41-12.67L66.41-12.67L66.41-12.67Q68.06-12.67 69.01-11.54L69.01-11.54L69.01-11.54Q69.96-10.42 69.96-8.06L69.96-8.06L69.96 0L68.14 0L68.14-7.94L68.14-7.94Q68.14-9.43 67.52-10.22L67.52-10.22L67.52-10.22Q66.91-11.02 65.64-11.02L65.64-11.02L65.64-11.02Q64.54-11.02 63.77-10.34L63.77-10.34L63.77-10.34Q63-9.67 63-8.45L63-8.45L63 0ZM82.94 1.39L82.94 1.39L82.94 1.39Q82.94 3.36 81.61 4.22L81.61 4.22L81.61 4.22Q80.28 5.09 77.50 5.09L77.50 5.09L77.50 5.09Q74.83 5.09 73.69 4.30L73.69 4.30L73.69 4.30Q72.55 3.50 72.55 2.02L72.55 2.02L72.55 2.02Q72.55 1.01 73.06 0.43L73.06 0.43L73.06 0.43Q73.56-0.14 74.35-0.29L74.35-0.29L74.35-0.62L74.35-0.62Q73.87-0.89 73.60-1.31L73.60-1.31L73.60-1.31Q73.32-1.73 73.32-2.30L73.32-2.30L73.32-2.30Q73.32-3.07 73.76-3.62L73.76-3.62L73.76-3.62Q74.21-4.18 75.22-4.30L75.22-4.30L75.22-4.56L75.22-4.56Q74.26-5.04 73.72-5.99L73.72-5.99L73.72-5.99Q73.18-6.94 73.18-8.38L73.18-8.38L73.18-8.38Q73.18-10.49 74.33-11.57L74.33-11.57L74.33-11.57Q75.48-12.65 77.42-12.65L77.42-12.65L77.42-12.65Q78.58-12.65 79.51-12.24L79.51-12.24L79.51-12.67L79.51-12.67Q79.51-13.37 79.82-13.68L79.82-13.68L79.82-13.68Q80.14-13.99 80.83-13.99L80.83-13.99L82.49-13.99L82.49-12.38L80.35-12.38L80.35-11.71L80.35-11.71Q80.98-11.16 81.32-10.34L81.32-10.34L81.32-10.34Q81.67-9.53 81.67-8.38L81.67-8.38L81.67-8.38Q81.67-6.26 80.52-5.18L80.52-5.18L80.52-5.18Q79.37-4.10 77.42-4.10L77.42-4.10L77.42-4.10Q76.85-4.10 76.25-4.22L76.25-4.22L76.25-4.22Q75.58-4.10 75.23-3.68L75.23-3.68L75.23-3.68Q74.88-3.26 74.88-2.83L74.88-2.83L74.88-2.83Q74.88-2.35 75.22-2.11L75.22-2.11L75.22-2.11Q75.55-1.87 76.32-1.87L76.32-1.87L79.03-1.87L79.03-1.87Q81.12-1.87 82.03-1.03L82.03-1.03L82.03-1.03Q82.94-0.19 82.94 1.39ZM81.24 1.51L81.24 1.51L81.24 1.51Q81.24 0.70 80.74 0.28L80.74 0.28L80.74 0.28Q80.23-0.14 79.01-0.14L79.01-0.14L75.24-0.14L75.24-0.14Q74.69 0.12 74.46 0.53L74.46 0.53L74.46 0.53Q74.23 0.94 74.23 1.56L74.23 1.56L74.23 1.56Q74.23 2.50 74.81 3.04L74.81 3.04L74.81 3.04Q75.38 3.58 76.66 3.58L76.66 3.58L78.24 3.58L78.24 3.58Q79.73 3.58 80.48 3.08L80.48 3.08L80.48 3.08Q81.24 2.59 81.24 1.51ZM77.42-5.59L77.42-5.59L77.42-5.59Q78.55-5.59 79.18-6.17L79.18-6.17L79.18-6.17Q79.80-6.74 79.80-7.94L79.80-7.94L79.80-8.83L79.80-8.83Q79.80-10.03 79.18-10.61L79.18-10.61L79.18-10.61Q78.55-11.18 77.42-11.18L77.42-11.18L77.42-11.18Q76.30-11.18 75.67-10.61L75.67-10.61L75.67-10.61Q75.05-10.03 75.05-8.83L75.05-8.83L75.05-7.94L75.05-7.94Q75.05-6.74 75.67-6.17L75.67-6.17L75.67-6.17Q76.30-5.59 77.42-5.59ZM86.33 0.29L86.33 0.29L86.33 0.29Q84.91 0.29 84.91-0.94L84.91-0.94L84.91-1.32L84.91-1.32Q84.91-2.54 86.33-2.54L86.33-2.54L86.33-2.54Q87.74-2.54 87.74-1.32L87.74-1.32L87.74-0.94L87.74-0.94Q87.74 0.29 86.33 0.29ZM92.95 0L91.13 0L91.13-12.38L92.95-12.38L92.95-10.37L93.19-10.37L93.19-10.37Q93.55-11.52 94.25-12.10L94.25-12.10L94.25-12.10Q94.94-12.67 96.22-12.67L96.22-12.67L96.22-12.67Q97.37-12.67 98.17-12.11L98.17-12.11L98.17-12.11Q98.98-11.54 99.38-10.37L99.38-10.37L99.62-10.37L99.62-10.37Q100.01-11.52 100.82-12.10L100.82-12.10L100.82-12.10Q101.64-12.67 102.98-12.67L102.98-12.67L102.98-12.67Q104.57-12.67 105.53-11.54L105.53-11.54L105.53-11.54Q106.49-10.42 106.49-8.06L106.49-8.06L106.49 0L104.66 0L104.66-7.94L104.66-7.94Q104.66-9.43 104.08-10.22L104.08-10.22L104.08-10.22Q103.49-11.02 102.26-11.02L102.26-11.02L102.26-11.02Q101.18-11.02 100.45-10.34L100.45-10.34L100.45-10.34Q99.72-9.67 99.72-8.45L99.72-8.45L99.72 0L97.90 0L97.90-7.94L97.90-7.94Q97.90-9.43 97.31-10.22L97.31-10.22L97.31-10.22Q96.72-11.02 95.50-11.02L95.50-11.02L95.50-11.02Q94.42-11.02 93.68-10.34L93.68-10.34L93.68-10.34Q92.95-9.67 92.95-8.45L92.95-8.45L92.95 0ZM114.24 0.29L114.24 0.29L114.24 0.29Q113.16 0.29 112.22-0.07L112.22-0.07L112.22-0.07Q111.29-0.43 110.62-1.22L110.62-1.22L110.62-1.22Q109.94-2.02 109.56-3.24L109.56-3.24L109.56-3.24Q109.18-4.46 109.18-6.19L109.18-6.19L109.18-6.19Q109.18-7.92 109.56-9.14L109.56-9.14L109.56-9.14Q109.94-10.37 110.62-11.16L110.62-11.16L110.62-11.16Q111.29-11.95 112.22-12.31L112.22-12.31L112.22-12.31Q113.16-12.67 114.24-12.67L114.24-12.67L114.24-12.67Q115.32-12.67 116.22-12.31L116.22-12.31L116.22-12.31Q117.12-11.95 117.74-11.16L117.74-11.16L117.74-11.16Q118.37-10.37 118.72-9.14L118.72-9.14L118.72-9.14Q119.06-7.92 119.06-6.19L119.06-6.19L119.06-5.74L111.12-5.74L111.12-4.94L111.12-4.94Q111.12-3.12 111.95-2.22L111.95-2.22L111.95-2.22Q112.78-1.32 114.24-1.32L114.24-1.32L114.24-1.32Q115.49-1.32 116.28-1.86L116.28-1.86L116.28-1.86Q117.07-2.40 117.53-3.48L117.53-3.48L118.78-2.57L118.78-2.57Q118.20-1.30 117.08-0.50L117.08-0.50L117.08-0.50Q115.97 0.29 114.24 0.29ZM114.24-11.14L114.24-11.14L114.24-11.14Q112.75-11.14 111.94-10.20L111.94-10.20L111.94-10.20Q111.12-9.26 111.12-7.44L111.12-7.44L111.12-7.13L117.12-7.13L117.12-7.44L117.12-7.44Q117.12-11.14 114.24-11.14Z" fill="url(#editing-sticker-gradient)" stroke="#000" stroke-width="2.5"></path></g></g><style>text {
  font-size: 64px;
  font-family: Arial Black;
  dominant-baseline: central;
  text-anchor: middle;
}</style></svg>